<?xml version="1.0" encoding="UTF-8"?>
<svg xmlns="http://www.w3.org/2000/svg" viewBox="0 0 518 600" width="518" height="600" role="img" aria-label="mitox hex sticker" overflow="hidden" style="background:transparent;background-color:transparent;">
  <title>mitox</title>
  <defs>
    <linearGradient id="hex-fill" x1="0" y1="0" x2="0" y2="1">
      <stop offset="0%" stop-color="#1A5C6E"/>
      <stop offset="100%" stop-color="#0E3A48"/>
    </linearGradient>
    <clipPath id="hex-clip">
      <polygon points="259.0,22.0 499.8,161.0 499.8,439.0 259.0,578.0 18.2,439.0 18.2,161.0"/>
    </clipPath>
  </defs>
  <rect width="518" height="600" fill="none" fill-opacity="0"/>
  <g clip-path="url(#hex-clip)">
  <polygon points="259.0,22.0 499.8,161.0 499.8,439.0 259.0,578.0 18.2,439.0 18.2,161.0" fill="#E69F00"/>
  <polygon points="259.0,42.0 482.4,171.0 482.4,429.0 259.0,558.0 35.6,429.0 35.6,171.0" fill="url(#hex-fill)"/>

  <!-- Persistent core taxa above the sampling timeline -->
  <g transform="translate(259 232)">
    <g transform="rotate(-18)">
      <rect x="-98" y="-48" width="196" height="44" rx="22" fill="#E69F00"/>
      <line x1="-70" y1="-26" x2="70" y2="-26" stroke="#F7F4EC" stroke-width="3.5" stroke-linecap="round" opacity="0.55"/>
    </g>
    <g transform="rotate(16)">
      <rect x="-82" y="-2" width="164" height="38" rx="19" fill="#7EB8C9"/>
      <line x1="-56" y1="17" x2="56" y2="17" stroke="#F7F4EC" stroke-width="3" stroke-linecap="round" opacity="0.5"/>
    </g>
  </g>

  <!-- Longitudinal samples; larger gold node is the irAE-timed point -->
  <g transform="translate(259 338)">
    <line x1="-92" y1="0" x2="92" y2="0" stroke="#F7F4EC" stroke-width="7" stroke-linecap="round" opacity="0.85"/>
    <circle cx="-92" cy="0" r="13" fill="#7EB8C9"/>
    <circle cx="0" cy="0" r="20" fill="#E69F00"/>
    <circle cx="0" cy="0" r="8" fill="#F7F4EC"/>
    <circle cx="92" cy="0" r="13" fill="#7EB8C9"/>
  </g>

  <text x="259" y="478" text-anchor="middle" fill="#FFFFFF" font-family="Helvetica Neue, Helvetica, Arial, sans-serif" font-size="78" font-weight="700" letter-spacing="1">mitox</text>
  </g>
</svg>
