<?xml version="1.0" encoding="UTF-8"?>
<svg id="Layer_1" xmlns="http://www.w3.org/2000/svg" xmlns:xlink="http://www.w3.org/1999/xlink" version="1.1" viewBox="0 0 144 144">
  <!-- Generator: Adobe Illustrator 29.0.0, SVG Export Plug-In . SVG Version: 2.1.0 Build 186)  -->
  <defs>
    <style>
      .st0, .st1, .st2, .st3 {
        fill: none;
      }

      .st4 {
        font-size: 8.5px;
      }

      .st4, .st5, .st6, .st7 {
        font-family: MyriadPro-Regular, 'Myriad Pro';
        isolation: isolate;
      }

      .st1 {
        stroke-dasharray: 4.6 4.6;
        stroke-width: .9px;
      }

      .st1, .st2, .st3 {
        stroke: #000;
        stroke-linejoin: round;
      }

      .st5 {
        font-size: 13.2px;
      }

      .st8 {
        letter-spacing: .3em;
      }

      .st9 {
        clip-path: url(#clippath-1);
      }

      .st10 {
        clip-path: url(#clippath-2);
      }

      .st11 {
        fill: #006400;
        stroke: #006400;
        stroke-miterlimit: 10;
      }

      .st11, .st3 {
        stroke-width: 1.1px;
      }

      .st2 {
        stroke-linecap: round;
        stroke-width: .8px;
      }

      .st6 {
        font-size: 11px;
      }

      .st7 {
        font-size: 10px;
      }

      .st3 {
        stroke-dasharray: 5.7 5.7;
      }

      .st12 {
        clip-path: url(#clippath);
      }
    </style>
    <clipPath id="clippath">
      <rect class="st0" width="144" height="144"/>
    </clipPath>
    <clipPath id="clippath-1">
      <rect class="st0" x="5" y="22.7" width="134" height="96.9"/>
    </clipPath>
    <clipPath id="clippath-2">
      <rect class="st0" width="144" height="144"/>
    </clipPath>
  </defs>
  <rect class="st0" width="144" height="144"/>
  <g class="st12">
    <rect class="st0" width="144" height="144"/>
  </g>
  <g class="st9">
    <g>
      <polygon class="st11" points="14.1 115.2 20.2 115.2 20.2 115.2 14.1 115.2"/>
      <polygon class="st11" points="20.2 115.2 26.3 115.2 26.3 115.2 20.2 115.2"/>
      <rect class="st11" x="26.3" y="110" width="6.1" height="5.2"/>
      <rect class="st11" x="32.4" y="110" width="6.1" height="5.2"/>
      <polygon class="st11" points="38.5 115.2 44.6 115.2 44.6 115.2 38.5 115.2"/>
      <polygon class="st11" points="44.6 115.2 50.7 115.2 50.7 115.2 44.6 115.2"/>
      <polygon class="st11" points="50.7 115.2 56.8 115.2 56.8 115.2 50.7 115.2"/>
      <polygon class="st11" points="56.8 115.2 62.9 115.2 62.9 115.2 56.8 115.2"/>
      <polygon class="st11" points="62.9 115.2 68.9 115.2 68.9 115.2 62.9 115.2"/>
      <rect class="st11" x="68.9" y="27.1" width="6.1" height="88.1"/>
      <rect class="st11" x="75.1" y="58.2" width="6.1" height="57"/>
      <rect class="st11" x="81.1" y="99.6" width="6.1" height="15.5"/>
      <rect class="st11" x="87.2" y="99.6" width="6.1" height="15.5"/>
      <rect class="st11" x="93.3" y="99.6" width="6.1" height="15.5"/>
      <polygon class="st11" points="99.4 115.2 105.5 115.2 105.5 115.2 99.4 115.2"/>
      <rect class="st11" x="105.5" y="110" width="6.1" height="5.2"/>
      <polygon class="st11" points="111.6 115.2 117.7 115.2 117.7 115.2 111.6 115.2"/>
      <polygon class="st11" points="117.7 115.2 123.8 115.2 123.8 115.2 117.7 115.2"/>
      <rect class="st11" x="123.8" y="110" width="6.1" height="5.2"/>
      <line class="st3" x1="77.9" y1="119.6" x2="77.9" y2="22.7"/>
      <line class="st1" x1="62.4" y1="119.6" x2="62.4" y2="22.7"/>
      <line class="st1" x1="93.5" y1="119.6" x2="93.5" y2="22.7"/>
      <text class="st4" transform="translate(14.1 40.8)"><tspan x="0" y="0">Mean = 1</tspan></text>
      <text class="st4" transform="translate(16.7 53)"><tspan x="0" y="0">SD = 2.6</tspan></text>
    </g>
  </g>
  <g class="st10">
    <g>
      <line class="st2" x1="5" y1="119.6" x2="139" y2="119.6"/>
      <line class="st2" x1="11.1" y1="119.6" x2="11.1" y2="119.6"/>
      <line class="st2" x1="41.5" y1="119.6" x2="41.5" y2="119.6"/>
      <line class="st2" x1="72" y1="119.6" x2="72" y2="119.6"/>
      <line class="st2" x1="102.5" y1="119.6" x2="102.5" y2="119.6"/>
      <line class="st2" x1="132.9" y1="119.6" x2="132.9" y2="119.6"/>
      <text class="st7" transform="translate(3.8 127.8)"><tspan x="0" y="0">-10</tspan></text>
      <text class="st7" transform="translate(37.1 127.8)"><tspan x="0" y="0">-5</tspan></text>
      <text class="st7" transform="translate(69.2 127.8)"><tspan x="0" y="0">0</tspan></text>
      <text class="st7" transform="translate(99.7 127.8)"><tspan x="0" y="0">5</tspan></text>
      <text class="st7" transform="translate(127.4 127.8)"><tspan x="0" y="0">10</tspan></text>
      <text class="st6" transform="translate(31.4 137.6)"><tspan x="0" y="0">Days</tspan><tspan class="st8" x="22.2" y="0"> </tspan><tspan x="28.2" y="0">from</tspan><tspan class="st8" x="50.3" y="0"> </tspan><tspan x="56.3" y="0">C1D1</tspan></text>
      <text class="st5" transform="translate(21.9 19.9)"><tspan x="0" y="0">Baseline (n = 41)</tspan></text>
    </g>
  </g>
</svg>