<?xml version="1.0" encoding="UTF-8"?>
<svg id="Layer_1" xmlns="http://www.w3.org/2000/svg" xmlns:xlink="http://www.w3.org/1999/xlink" version="1.1" viewBox="0 0 144 144">
  <!-- Generator: Adobe Illustrator 29.0.0, SVG Export Plug-In . SVG Version: 2.1.0 Build 186)  -->
  <defs>
    <style>
      .st0, .st1, .st2, .st3 {
        fill: none;
      }

      .st4 {
        font-size: 8.5px;
      }

      .st4, .st5, .st6, .st7 {
        font-family: MyriadPro-Regular, 'Myriad Pro';
        isolation: isolate;
      }

      .st1 {
        stroke-dasharray: 4.6 4.6;
        stroke-width: .9px;
      }

      .st1, .st2, .st3 {
        stroke: #000;
        stroke-linejoin: round;
      }

      .st5 {
        font-size: 13.2px;
      }

      .st8 {
        letter-spacing: .3em;
      }

      .st9 {
        clip-path: url(#clippath-1);
      }

      .st10 {
        clip-path: url(#clippath-2);
      }

      .st11 {
        fill: #006400;
        stroke: #006400;
        stroke-miterlimit: 10;
      }

      .st11, .st3 {
        stroke-width: 1.1px;
      }

      .st2 {
        stroke-linecap: round;
        stroke-width: .8px;
      }

      .st6 {
        font-size: 11px;
      }

      .st7 {
        font-size: 10px;
      }

      .st3 {
        stroke-dasharray: 5.7 5.7;
      }

      .st12 {
        clip-path: url(#clippath);
      }
    </style>
    <clipPath id="clippath">
      <rect class="st0" width="144" height="144"/>
    </clipPath>
    <clipPath id="clippath-1">
      <rect class="st0" x="5" y="22.7" width="134" height="96.9"/>
    </clipPath>
    <clipPath id="clippath-2">
      <rect class="st0" width="144" height="144"/>
    </clipPath>
  </defs>
  <rect class="st0" width="144" height="144"/>
  <g class="st12">
    <rect class="st0" width="144" height="144"/>
  </g>
  <g class="st9">
    <g>
      <rect class="st11" x="14.1" y="85.8" width="6.1" height="29.4"/>
      <polygon class="st11" points="20.2 115.2 26.3 115.2 26.3 115.2 20.2 115.2"/>
      <rect class="st11" x="26.3" y="56.4" width="6.1" height="58.7"/>
      <polygon class="st11" points="32.4 115.2 38.5 115.2 38.5 115.2 32.4 115.2"/>
      <rect class="st11" x="38.5" y="85.8" width="6.1" height="29.4"/>
      <rect class="st11" x="44.6" y="85.8" width="6.1" height="29.4"/>
      <polygon class="st11" points="50.7 115.2 56.8 115.2 56.8 115.2 50.7 115.2"/>
      <polygon class="st11" points="56.8 115.2 62.9 115.2 62.9 115.2 56.8 115.2"/>
      <polygon class="st11" points="62.9 115.2 68.9 115.2 68.9 115.2 62.9 115.2"/>
      <rect class="st11" x="68.9" y="85.8" width="6.1" height="29.4"/>
      <polygon class="st11" points="75.1 115.2 81.1 115.2 81.1 115.2 75.1 115.2"/>
      <polygon class="st11" points="81.1 115.2 87.2 115.2 87.2 115.2 81.1 115.2"/>
      <polygon class="st11" points="87.2 115.2 93.3 115.2 93.3 115.2 87.2 115.2"/>
      <rect class="st11" x="93.3" y="27.1" width="6.1" height="88.1"/>
      <polygon class="st11" points="99.4 115.2 105.5 115.2 105.5 115.2 99.4 115.2"/>
      <polygon class="st11" points="105.5 115.2 111.6 115.2 111.6 115.2 105.5 115.2"/>
      <polygon class="st11" points="111.6 115.2 117.7 115.2 117.7 115.2 111.6 115.2"/>
      <rect class="st11" x="117.7" y="85.8" width="6.1" height="29.4"/>
      <rect class="st11" x="123.8" y="85.8" width="6.1" height="29.4"/>
      <line class="st3" x1="65.4" y1="119.6" x2="65.4" y2="22.7"/>
      <line class="st1" x1="24.4" y1="119.6" x2="24.4" y2="52"/>
      <line class="st1" x1="106.4" y1="119.6" x2="106.4" y2="22.7"/>
      <text class="st4" transform="translate(10 34.6)"><tspan x="0" y="0">Mean = -1.1</tspan></text>
      <text class="st4" transform="translate(23.6 46.9)"><tspan x="0" y="0">SD = 6.7</tspan></text>
    </g>
  </g>
  <g class="st10">
    <g>
      <line class="st2" x1="5" y1="119.6" x2="139" y2="119.6"/>
      <line class="st2" x1="11.1" y1="119.6" x2="11.1" y2="119.6"/>
      <line class="st2" x1="41.5" y1="119.6" x2="41.5" y2="119.6"/>
      <line class="st2" x1="72" y1="119.6" x2="72" y2="119.6"/>
      <line class="st2" x1="102.5" y1="119.6" x2="102.5" y2="119.6"/>
      <line class="st2" x1="132.9" y1="119.6" x2="132.9" y2="119.6"/>
      <text class="st7" transform="translate(3.8 127.8)"><tspan x="0" y="0">-10</tspan></text>
      <text class="st7" transform="translate(37.1 127.8)"><tspan x="0" y="0">-5</tspan></text>
      <text class="st7" transform="translate(69.2 127.8)"><tspan x="0" y="0">0</tspan></text>
      <text class="st7" transform="translate(99.7 127.8)"><tspan x="0" y="0">5</tspan></text>
      <text class="st7" transform="translate(127.4 127.8)"><tspan x="0" y="0">10</tspan></text>
      <text class="st6" transform="translate(35 137.6)"><tspan x="0" y="0">Days</tspan><tspan class="st8" x="22.2" y="0"> </tspan><tspan x="27.9" y="0">from</tspan><tspan class="st8" x="49.9" y="0"> </tspan><tspan x="55.7" y="0">irAE</tspan></text>
      <text class="st5" transform="translate(34.8 19.9)"><tspan x="0" y="0">irAE (n = 12)</tspan></text>
    </g>
  </g>
</svg>